<svg width="1806" height="1054" viewBox="0 0 1806 1054" fill="none" xmlns="http://www.w3.org/2000/svg">
<rect x="25" y="62.0001" width="1650" height="967" stroke="#876543" stroke-width="50"/>
<g filter="url(#filter0_d_155_1114)">
<rect x="1501" y="46.8639" width="246.843" height="321.47" transform="rotate(-10 1501 46.8639)" fill="#E3DADA"/>
</g>
<path d="M1628.85 42.9475C1640.46 42.9477 1649.88 52.3621 1649.88 63.9749C1649.88 75.5875 1640.46 85.001 1628.85 85.0012C1617.24 85.0012 1607.82 75.5876 1607.82 63.9749C1607.82 52.362 1617.24 42.9475 1628.85 42.9475Z" fill="#635C5C" stroke="black"/>
<path d="M1568.75 160.395C1568.45 158.688 1568.45 156.968 1568.77 155.233C1569.11 153.467 1569.75 151.811 1570.7 150.263C1571.64 148.689 1572.89 147.357 1574.46 146.269C1576.02 145.153 1577.9 144.404 1580.08 144.019C1582.65 143.566 1584.97 143.739 1587.03 144.539C1589.12 145.335 1590.79 146.558 1592.03 148.208L1588.36 151.82C1587.7 150.853 1586.94 150.135 1586.07 149.665C1585.19 149.169 1584.3 148.879 1583.4 148.796C1582.48 148.686 1581.61 148.705 1580.77 148.853C1579.4 149.094 1578.25 149.58 1577.33 150.312C1576.43 151.04 1575.71 151.91 1575.19 152.924C1574.66 153.937 1574.33 155.025 1574.18 156.188C1574.06 157.347 1574.1 158.478 1574.29 159.581C1574.51 160.815 1574.92 161.975 1575.51 163.061C1576.11 164.121 1576.84 165.035 1577.7 165.803C1578.59 166.539 1579.58 167.083 1580.67 167.432C1581.78 167.75 1582.94 167.803 1584.15 167.59C1585.02 167.437 1585.87 167.138 1586.71 166.691C1587.56 166.245 1588.3 165.639 1588.95 164.875C1589.6 164.11 1590.05 163.192 1590.29 162.12L1595.2 163.896C1594.89 165.385 1594.19 166.726 1593.1 167.92C1592.04 169.11 1590.78 170.09 1589.32 170.862C1587.86 171.635 1586.36 172.155 1584.84 172.424C1582.84 172.775 1580.95 172.69 1579.15 172.168C1577.35 171.619 1575.72 170.769 1574.27 169.616C1572.85 168.433 1571.64 167.048 1570.66 165.461C1569.69 163.843 1569.06 162.155 1568.75 160.395ZM1608.96 168.333C1607.28 168.629 1605.72 168.62 1604.28 168.305C1602.84 167.963 1601.56 167.377 1600.44 166.545C1599.35 165.709 1598.44 164.692 1597.71 163.493C1596.98 162.294 1596.5 160.986 1596.25 159.568C1595.99 158.123 1596 156.714 1596.27 155.339C1596.54 153.964 1597.05 152.697 1597.79 151.537C1598.56 150.372 1599.57 149.396 1600.81 148.608C1602.05 147.795 1603.51 147.239 1605.19 146.943C1606.87 146.647 1608.42 146.672 1609.83 147.018C1611.27 147.333 1612.55 147.906 1613.67 148.738C1614.79 149.569 1615.7 150.586 1616.4 151.79C1617.13 152.989 1617.62 154.31 1617.87 155.755C1618.12 157.173 1618.11 158.569 1617.84 159.944C1617.59 161.314 1617.09 162.581 1616.32 163.746C1615.57 164.906 1614.58 165.893 1613.34 166.707C1612.1 167.495 1610.64 168.037 1608.96 168.333ZM1601.68 158.609C1601.89 159.817 1602.32 160.852 1602.96 161.714C1603.6 162.55 1604.37 163.159 1605.27 163.541C1606.18 163.922 1607.14 164.023 1608.17 163.842C1609.17 163.666 1610.03 163.244 1610.75 162.575C1611.46 161.88 1611.98 161.031 1612.29 160.029C1612.62 158.995 1612.68 157.875 1612.47 156.667C1612.26 155.485 1611.82 154.465 1611.16 153.608C1610.52 152.746 1609.74 152.124 1608.84 151.742C1607.93 151.361 1606.98 151.258 1605.98 151.434C1604.96 151.614 1604.09 152.052 1603.37 152.747C1602.65 153.416 1602.13 154.265 1601.83 155.294C1601.52 156.296 1601.47 157.401 1601.68 158.609ZM1621.69 157.722L1619.41 144.801L1624.69 143.87L1626.77 155.648C1627.04 157.224 1627.54 158.368 1628.27 159.08C1628.98 159.766 1629.9 160.01 1631.03 159.811C1631.72 159.69 1632.36 159.441 1632.97 159.062C1633.61 158.653 1634.15 158.124 1634.6 157.475C1635.08 156.822 1635.45 156.04 1635.69 155.131L1633.43 142.328L1638.71 141.397L1641.31 156.13C1641.41 156.682 1641.57 157.059 1641.8 157.263C1642.05 157.463 1642.4 157.549 1642.86 157.523L1643.61 161.817C1643.1 161.988 1642.66 162.119 1642.3 162.21C1641.97 162.323 1641.66 162.405 1641.37 162.456C1640.42 162.623 1639.61 162.549 1638.94 162.235C1638.28 161.891 1637.83 161.347 1637.59 160.604L1637.18 158.97C1636.51 160.524 1635.51 161.796 1634.2 162.786C1632.88 163.75 1631.35 164.385 1629.62 164.69C1627.49 165.065 1625.76 164.667 1624.41 163.496C1623.06 162.299 1622.16 160.374 1621.69 157.722ZM1666.78 157.731L1661.5 158.662L1659.46 147.081C1659.17 145.426 1658.67 144.269 1657.96 143.609C1657.24 142.95 1656.38 142.71 1655.35 142.891C1654.64 143.016 1653.95 143.327 1653.28 143.824C1652.64 144.317 1652.09 144.943 1651.62 145.701C1651.16 146.433 1650.87 147.243 1650.75 148.129L1652.88 160.183L1647.6 161.114L1643.96 140.472L1648.73 139.632L1649.4 143.453C1649.77 142.468 1650.3 141.601 1651.01 140.853C1651.72 140.08 1652.56 139.442 1653.56 138.942C1654.58 138.411 1655.67 138.041 1656.86 137.833C1658.14 137.606 1659.24 137.657 1660.13 137.986C1661.05 138.284 1661.79 138.79 1662.35 139.504C1662.93 140.187 1663.39 141 1663.71 141.944C1664.07 142.883 1664.34 143.852 1664.51 144.85L1666.78 157.731ZM1683.44 153.698C1683.02 153.96 1682.52 154.265 1681.93 154.613C1681.35 154.96 1680.7 155.265 1679.98 155.525C1679.3 155.808 1678.59 156.014 1677.86 156.144C1676.89 156.315 1675.96 156.302 1675.09 156.104C1674.22 155.906 1673.46 155.484 1672.84 154.836C1672.23 154.158 1671.82 153.215 1671.61 152.007L1669.51 140.15L1666.8 140.629L1666.08 136.572L1668.8 136.092L1667.62 129.396L1672.9 128.465L1674.08 135.162L1678.41 134.398L1679.13 138.455L1674.79 139.219L1676.57 149.304C1676.72 150.008 1677.01 150.485 1677.43 150.736C1677.86 150.986 1678.34 151.062 1678.9 150.965C1679.45 150.868 1679.97 150.681 1680.46 150.405C1680.95 150.128 1681.35 149.897 1681.64 149.71L1683.44 153.698ZM1695.83 136.037C1694.23 136.32 1692.85 136.887 1691.7 137.74C1690.55 138.566 1689.8 139.606 1689.45 140.858L1691.65 153.346L1686.38 154.277L1682.74 133.635L1687.58 132.781L1688.36 137.193C1688.84 135.645 1689.58 134.364 1690.57 133.351C1691.55 132.338 1692.67 131.681 1693.91 131.38C1694.2 131.329 1694.43 131.289 1694.58 131.262C1694.74 131.234 1694.87 131.224 1694.98 131.232L1695.83 136.037ZM1702.75 155.532C1703.24 155.554 1703.69 155.569 1704.1 155.579C1704.53 155.583 1704.89 155.56 1705.18 155.509C1705.68 155.421 1706.07 155.218 1706.34 154.9C1706.64 154.603 1706.88 154.099 1707.08 153.387C1707.29 152.701 1707.46 151.75 1707.6 150.535L1695.8 131.331L1701.28 130.365L1709.52 144.631L1711.72 128.525L1716.76 127.636L1712.46 153.902C1712.3 154.877 1711.96 155.79 1711.44 156.641C1710.94 157.514 1710.24 158.246 1709.34 158.837C1708.48 159.45 1707.45 159.861 1706.27 160.07C1705.85 160.144 1705.42 160.178 1704.99 160.174C1704.56 160.195 1704.08 160.171 1703.56 160.102L1702.75 155.532ZM1615.01 214.788C1613.2 215.107 1611.42 215.043 1609.66 214.595C1607.93 214.142 1606.33 213.381 1604.87 212.312C1603.43 211.212 1602.22 209.855 1601.23 208.242C1600.24 206.629 1599.57 204.812 1599.21 202.79C1598.87 200.873 1598.9 199.014 1599.28 197.212C1599.66 195.385 1600.36 193.719 1601.37 192.215C1602.37 190.71 1603.64 189.444 1605.16 188.417C1606.69 187.39 1608.42 186.705 1610.37 186.363C1612.99 185.9 1615.34 186.068 1617.4 186.869C1619.49 187.638 1621.16 188.859 1622.43 190.531L1618.9 194.24C1617.95 192.973 1616.76 192.085 1615.35 191.577C1613.96 191.064 1612.51 190.939 1611.02 191.203C1609.84 191.412 1608.8 191.851 1607.92 192.521C1607.04 193.192 1606.32 194.023 1605.76 195.014C1605.2 196.006 1604.83 197.101 1604.63 198.3C1604.46 199.494 1604.49 200.721 1604.71 201.982C1604.95 203.321 1605.36 204.521 1605.96 205.581C1606.58 206.636 1607.33 207.519 1608.21 208.229C1609.12 208.935 1610.12 209.45 1611.2 209.773C1612.29 210.07 1613.43 210.112 1614.64 209.899C1616.06 209.649 1617.34 209.042 1618.5 208.08C1619.68 207.113 1620.72 205.821 1621.6 204.204L1622.54 209.561C1620.65 212.495 1618.14 214.237 1615.01 214.788ZM1620.94 202.816L1615.31 203.809L1614.61 199.831L1624.73 198.045L1627.27 212.424L1622.78 213.216L1620.94 202.816ZM1640.85 193.458C1639.24 193.74 1637.87 194.308 1636.72 195.16C1635.57 195.987 1634.81 197.026 1634.47 198.279L1636.67 210.766L1631.39 211.697L1627.75 191.055L1632.6 190.201L1633.37 194.613C1633.86 193.065 1634.59 191.785 1635.58 190.772C1636.57 189.758 1637.68 189.101 1638.93 188.8C1639.22 188.749 1639.44 188.71 1639.6 188.682C1639.76 188.654 1639.89 188.644 1640 188.652L1640.85 193.458ZM1655.96 207.771C1654.28 208.068 1652.72 208.058 1651.28 207.743C1649.84 207.401 1648.56 206.815 1647.44 205.984C1646.34 205.148 1645.43 204.131 1644.71 202.932C1643.98 201.733 1643.49 200.424 1643.24 199.006C1642.99 197.562 1643 196.152 1643.27 194.777C1643.54 193.403 1644.05 192.135 1644.79 190.975C1645.56 189.811 1646.57 188.834 1647.81 188.047C1649.05 187.233 1650.5 186.678 1652.19 186.381C1653.87 186.085 1655.41 186.11 1656.83 186.456C1658.27 186.772 1659.54 187.345 1660.67 188.176C1661.79 189.007 1662.7 190.025 1663.4 191.228C1664.12 192.427 1664.61 193.749 1664.87 195.193C1665.12 196.611 1665.11 198.008 1664.83 199.382C1664.59 200.752 1664.08 202.02 1663.31 203.185C1662.57 204.345 1661.58 205.332 1660.34 206.145C1659.1 206.933 1657.64 207.475 1655.96 207.771ZM1648.68 198.048C1648.89 199.256 1649.32 200.291 1649.96 201.153C1650.59 201.989 1651.36 202.597 1652.27 202.979C1653.18 203.361 1654.14 203.461 1655.16 203.281C1656.16 203.105 1657.02 202.682 1657.74 202.014C1658.46 201.319 1658.97 200.47 1659.29 199.467C1659.62 198.434 1659.68 197.313 1659.46 196.105C1659.26 194.923 1658.82 193.904 1658.15 193.046C1657.51 192.184 1656.74 191.562 1655.83 191.181C1654.93 190.799 1653.97 190.696 1652.98 190.872C1651.95 191.053 1651.08 191.491 1650.37 192.186C1649.64 192.854 1649.13 193.703 1648.82 194.732C1648.51 195.734 1648.46 196.84 1648.68 198.048ZM1677.92 203.899C1676.16 204.21 1674.42 204.217 1672.72 203.922C1671.02 203.627 1669.49 203.016 1668.13 202.091L1669.42 198.33C1670.83 199.11 1672.17 199.633 1673.43 199.897C1674.72 200.157 1675.92 200.189 1677.02 199.995C1678.05 199.814 1678.83 199.487 1679.37 199.013C1679.93 198.534 1680.15 197.927 1680.02 197.192C1679.93 196.693 1679.7 196.342 1679.31 196.14C1678.92 195.911 1678.37 195.749 1677.68 195.655C1677.01 195.556 1676.2 195.456 1675.23 195.356C1673.62 195.125 1672.26 194.864 1671.15 194.572C1670.05 194.28 1669.17 193.826 1668.52 193.209C1667.89 192.562 1667.47 191.674 1667.27 190.544C1667.03 189.179 1667.17 187.95 1667.68 186.858C1668.21 185.735 1669.05 184.789 1670.19 184.02C1671.35 183.246 1672.77 182.711 1674.45 182.414C1675.92 182.155 1677.36 182.146 1678.75 182.387C1680.14 182.602 1681.47 183.127 1682.73 183.961L1681.19 187.685C1680 187.056 1678.89 186.641 1677.88 186.44C1676.87 186.213 1675.88 186.185 1674.9 186.356C1674.35 186.453 1673.84 186.612 1673.36 186.831C1672.91 187.045 1672.56 187.338 1672.3 187.709C1672.06 188.049 1671.99 188.494 1672.09 189.046C1672.18 189.545 1672.38 189.916 1672.69 190.158C1673.03 190.37 1673.49 190.532 1674.08 190.645C1674.69 190.753 1675.43 190.867 1676.29 190.986C1678.03 191.167 1679.5 191.407 1680.72 191.707C1681.96 192.002 1682.94 192.467 1683.65 193.1C1684.35 193.707 1684.81 194.641 1685.04 195.902C1685.4 197.95 1684.93 199.684 1683.64 201.103C1682.34 202.523 1680.44 203.455 1677.92 203.899ZM1697.38 200.467C1695.62 200.777 1693.89 200.785 1692.19 200.49C1690.48 200.194 1688.95 199.584 1687.6 198.658L1688.88 194.898C1690.3 195.678 1691.63 196.201 1692.9 196.465C1694.19 196.725 1695.39 196.757 1696.49 196.563C1697.51 196.382 1698.3 196.055 1698.83 195.581C1699.4 195.102 1699.62 194.495 1699.49 193.759C1699.4 193.26 1699.16 192.91 1698.77 192.707C1698.38 192.479 1697.84 192.317 1697.15 192.223C1696.48 192.124 1695.66 192.024 1694.7 191.924C1693.09 191.693 1691.73 191.432 1690.62 191.14C1689.51 190.848 1688.63 190.393 1687.98 189.777C1687.35 189.13 1686.94 188.241 1686.74 187.112C1686.5 185.746 1686.63 184.518 1687.15 183.426C1687.68 182.303 1688.51 181.357 1689.65 180.587C1690.81 179.814 1692.24 179.279 1693.92 178.982C1695.39 178.723 1696.82 178.714 1698.22 178.955C1699.61 179.17 1700.93 179.695 1702.19 180.529L1700.66 184.252C1699.46 183.623 1698.36 183.209 1697.35 183.008C1696.33 182.78 1695.34 182.752 1694.37 182.924C1693.82 183.021 1693.3 183.179 1692.83 183.399C1692.38 183.613 1692.02 183.906 1691.76 184.277C1691.53 184.616 1691.46 185.062 1691.55 185.614C1691.64 186.113 1691.84 186.483 1692.16 186.726C1692.49 186.938 1692.95 187.1 1693.54 187.213C1694.16 187.321 1694.89 187.434 1695.75 187.554C1697.49 187.735 1698.97 187.975 1700.19 188.275C1701.43 188.57 1702.41 189.034 1703.11 189.668C1703.82 190.275 1704.28 191.209 1704.5 192.469C1704.86 194.518 1704.4 196.252 1703.1 197.671C1701.81 199.091 1699.9 200.023 1697.38 200.467ZM1622.34 261.017L1619.11 242.66L1614.35 257.594L1611.32 258.128L1601.74 245.723L1604.97 264.08L1599.54 265.039L1594.6 237.07L1600.43 236.042L1611.51 250.498L1617.06 233.111L1622.85 232.09L1627.78 260.059L1622.34 261.017ZM1630.38 253.304C1630.15 251.965 1630.31 250.731 1630.87 249.604C1631.45 248.445 1632.36 247.472 1633.6 246.685C1634.84 245.897 1636.33 245.35 1638.06 245.045C1638.93 244.892 1639.82 244.802 1640.74 244.776C1641.65 244.75 1642.47 244.824 1643.17 244.997L1642.98 243.894C1642.75 242.581 1642.18 241.639 1641.26 241.069C1640.38 240.494 1639.17 240.341 1637.65 240.61C1636.52 240.809 1635.48 241.195 1634.52 241.77C1633.57 242.345 1632.59 243.112 1631.6 244.073L1629.29 240.905C1630.5 239.771 1631.77 238.856 1633.11 238.16C1634.48 237.459 1635.95 236.969 1637.53 236.691C1640.47 236.173 1642.88 236.505 1644.77 237.689C1646.68 238.868 1647.88 240.823 1648.36 243.554L1649.52 250.132C1649.62 250.684 1649.78 251.062 1650.01 251.265C1650.26 251.465 1650.61 251.551 1651.07 251.525L1651.82 255.819C1651.37 255.981 1650.94 256.123 1650.56 256.245C1650.2 256.362 1649.89 256.444 1649.63 256.491C1648.58 256.676 1647.73 256.581 1647.1 256.205C1646.49 255.825 1646.06 255.305 1645.81 254.646L1645.5 253.603C1644.81 254.916 1643.86 256.005 1642.63 256.872C1641.4 257.738 1640.09 258.294 1638.7 258.54C1637.33 258.781 1636.05 258.722 1634.85 258.365C1633.67 257.978 1632.68 257.353 1631.88 256.493C1631.1 255.601 1630.6 254.538 1630.38 253.304ZM1643.41 252.103C1643.64 251.737 1643.83 251.38 1643.95 251.033C1644.08 250.685 1644.12 250.38 1644.08 250.118L1643.71 248.03C1643.03 247.878 1642.31 247.802 1641.56 247.8C1640.79 247.772 1640.08 247.816 1639.43 247.932C1638.06 248.173 1636.99 248.674 1636.2 249.435C1635.43 250.166 1635.14 251.017 1635.31 251.989C1635.4 252.514 1635.63 252.987 1636.01 253.409C1636.38 253.831 1636.87 254.138 1637.47 254.329C1638.07 254.521 1638.75 254.55 1639.51 254.415C1640.3 254.276 1641.05 253.995 1641.76 253.572C1642.47 253.123 1643.02 252.633 1643.41 252.103ZM1664.95 236.932C1663.35 237.215 1661.98 237.782 1660.83 238.635C1659.67 239.461 1658.92 240.501 1658.57 241.753L1660.78 254.241L1655.5 255.171L1651.86 234.53L1656.7 233.676L1657.48 238.087C1657.97 236.54 1658.7 235.259 1659.69 234.246C1660.67 233.233 1661.79 232.576 1663.04 232.275C1663.32 232.224 1663.55 232.184 1663.7 232.156C1663.86 232.129 1664 232.119 1664.11 232.126L1664.95 236.932ZM1678.63 251.213C1677.27 251.454 1675.96 251.414 1674.71 251.092C1673.49 250.74 1672.37 250.152 1671.36 249.329C1670.37 248.501 1669.54 247.496 1668.88 246.314C1668.21 245.132 1667.75 243.832 1667.5 242.414C1667.23 240.917 1667.22 239.483 1667.47 238.113C1667.72 236.743 1668.17 235.498 1668.84 234.378C1669.53 233.227 1670.41 232.287 1671.47 231.559C1672.56 230.799 1673.81 230.294 1675.23 230.044C1676.83 229.761 1678.3 229.881 1679.64 230.403C1680.97 230.899 1682.14 231.682 1683.14 232.751L1682.5 229.127L1687.11 228.314L1690.57 247.971C1690.93 250.02 1690.74 251.854 1690 253.474C1689.29 255.116 1688.13 256.471 1686.53 257.538C1684.94 258.632 1683.04 259.373 1680.83 259.762C1678.6 260.155 1676.64 260.108 1674.96 259.62C1673.28 259.157 1671.77 258.341 1670.42 257.17L1672.81 253.866C1673.77 254.699 1674.88 255.286 1676.16 255.63C1677.47 255.968 1678.79 256.019 1680.13 255.783C1681.26 255.584 1682.25 255.193 1683.09 254.611C1683.97 254.05 1684.61 253.288 1685 252.324C1685.43 251.382 1685.53 250.241 1685.29 248.902L1684.84 246.302C1684.36 247.604 1683.55 248.695 1682.41 249.573C1681.28 250.421 1680.03 250.968 1678.63 251.213ZM1679.66 246.686C1680.24 246.584 1680.78 246.395 1681.27 246.118C1681.76 245.842 1682.2 245.507 1682.6 245.113C1682.99 244.719 1683.32 244.282 1683.58 243.802C1683.85 243.295 1684.03 242.802 1684.13 242.323L1683.27 237.399C1682.81 236.641 1682.24 236.01 1681.55 235.508C1680.89 235.002 1680.18 234.653 1679.42 234.463C1678.67 234.242 1677.92 234.199 1677.16 234.333C1676.35 234.476 1675.64 234.777 1675.05 235.234C1674.45 235.691 1673.97 236.277 1673.61 236.99C1673.24 237.678 1672.99 238.425 1672.87 239.233C1672.76 240.01 1672.78 240.806 1672.92 241.62C1673.07 242.46 1673.35 243.222 1673.77 243.907C1674.19 244.591 1674.7 245.165 1675.29 245.629C1675.92 246.088 1676.6 246.414 1677.34 246.609C1678.1 246.799 1678.88 246.825 1679.66 246.686ZM1695.5 248.117L1691.86 227.475L1697.14 226.545L1700.78 247.186L1695.5 248.117ZM1691.36 224.6L1690.43 219.361L1695.71 218.43L1696.64 223.669L1691.36 224.6ZM1724.73 242.964L1719.45 243.895L1717.41 232.313C1717.12 230.659 1716.61 229.502 1715.9 228.842C1715.19 228.182 1714.32 227.943 1713.3 228.123C1712.59 228.248 1711.9 228.56 1711.23 229.057C1710.58 229.55 1710.03 230.175 1709.57 230.934C1709.1 231.666 1708.81 232.475 1708.7 233.362L1710.82 245.416L1705.54 246.347L1701.91 225.705L1706.67 224.865L1707.35 228.686C1707.71 227.7 1708.25 226.834 1708.96 226.086C1709.66 225.312 1710.51 224.675 1711.51 224.175C1712.52 223.643 1713.62 223.274 1714.8 223.065C1716.09 222.838 1717.18 222.889 1718.08 223.219C1719 223.517 1719.74 224.023 1720.3 224.737C1720.88 225.42 1721.33 226.233 1721.66 227.177C1722.02 228.116 1722.28 229.085 1722.46 230.083L1724.73 242.964Z" fill="black"/>
<defs>
<filter id="filter0_d_155_1114" x="1499" y="0" width="306.916" height="367.45" filterUnits="userSpaceOnUse" color-interpolation-filters="sRGB">
<feFlood flood-opacity="0" result="BackgroundImageFix"/>
<feColorMatrix in="SourceAlpha" type="matrix" values="0 0 0 0 0 0 0 0 0 0 0 0 0 0 0 0 0 0 127 0" result="hardAlpha"/>
<feOffset dx="2"/>
<feGaussianBlur stdDeviation="2"/>
<feComposite in2="hardAlpha" operator="out"/>
<feColorMatrix type="matrix" values="0 0 0 0 0 0 0 0 0 0 0 0 0 0 0 0 0 0 0.25 0"/>
<feBlend mode="normal" in2="BackgroundImageFix" result="effect1_dropShadow_155_1114"/>
<feBlend mode="normal" in="SourceGraphic" in2="effect1_dropShadow_155_1114" result="shape"/>
</filter>
</defs>
</svg>
