<svg width="1550" height="1481" viewBox="0 0 1550 1481" fill="none" xmlns="http://www.w3.org/2000/svg">
<rect width="1550" height="674.315" fill="#AA8E76"/>
<line y1="673.315" x2="1550" y2="673.315" stroke="#676767" stroke-opacity="0.5" stroke-width="2"/>
<rect y="775.971" width="101.656" height="1550" transform="rotate(-90 0 775.971)" fill="#AA8E76"/>
<line y1="774.971" x2="1550" y2="774.971" stroke="#676767" stroke-opacity="0.5" stroke-width="2"/>
<rect y="775.971" width="166.572" height="704.812" fill="#AA8E76"/>
<rect x="1383.43" y="775.971" width="166.572" height="704.812" fill="#AA8E76"/>
<rect x="460.889" y="675.729" width="566.853" height="149.804" fill="#B3B3B3" stroke="black" stroke-width="3"/>
<path d="M637.352 758.65C637.352 760.45 636.887 761.965 635.957 763.195C635.027 764.395 633.767 765.31 632.177 765.94C630.617 766.57 628.907 766.885 627.047 766.885H611.612V734.935H628.712C630.212 734.935 631.502 735.34 632.582 736.15C633.692 736.93 634.532 737.95 635.102 739.21C635.702 740.44 636.002 741.73 636.002 743.08C636.002 744.61 635.612 746.065 634.832 747.445C634.052 748.825 632.912 749.845 631.412 750.505C633.242 751.045 634.682 752.02 635.732 753.43C636.812 754.84 637.352 756.58 637.352 758.65ZM631.097 757.48C631.097 756.67 630.932 755.95 630.602 755.32C630.272 754.66 629.822 754.15 629.252 753.79C628.712 753.4 628.082 753.205 627.362 753.205H617.822V761.62H627.047C627.797 761.62 628.472 761.44 629.072 761.08C629.702 760.69 630.197 760.18 630.557 759.55C630.917 758.92 631.097 758.23 631.097 757.48ZM617.822 740.245V748.3H626.102C626.792 748.3 627.422 748.135 627.992 747.805C628.562 747.475 629.012 747.01 629.342 746.41C629.702 745.81 629.882 745.09 629.882 744.25C629.882 743.44 629.717 742.735 629.387 742.135C629.087 741.535 628.667 741.07 628.127 740.74C627.617 740.41 627.032 740.245 626.372 740.245H617.822ZM655.653 748.525C653.823 748.525 652.188 748.885 650.748 749.605C649.308 750.295 648.273 751.3 647.643 752.62V766.885H641.613V743.305H647.148V748.345C647.988 746.725 649.053 745.45 650.343 744.52C651.633 743.59 652.998 743.08 654.438 742.99C654.768 742.99 655.023 742.99 655.203 742.99C655.383 742.99 655.533 743.005 655.653 743.035V748.525ZM658.79 758.065V743.305H664.82V756.76C664.82 758.56 665.15 759.925 665.81 760.855C666.47 761.755 667.445 762.205 668.735 762.205C669.515 762.205 670.28 762.055 671.03 761.755C671.81 761.425 672.515 760.945 673.145 760.315C673.805 759.685 674.36 758.89 674.81 757.93V743.305H680.84V760.135C680.84 760.765 680.945 761.215 681.155 761.485C681.395 761.755 681.77 761.92 682.28 761.98V766.885C681.68 766.975 681.17 767.035 680.75 767.065C680.36 767.125 680 767.155 679.67 767.155C678.59 767.155 677.705 766.915 677.015 766.435C676.355 765.925 675.965 765.235 675.845 764.365L675.71 762.475C674.66 764.065 673.31 765.28 671.66 766.12C670.01 766.93 668.195 767.335 666.215 767.335C663.785 767.335 661.94 766.555 660.68 764.995C659.42 763.405 658.79 761.095 658.79 758.065ZM700.875 765.67C700.365 765.88 699.75 766.12 699.03 766.39C698.31 766.66 697.53 766.87 696.69 767.02C695.88 767.2 695.055 767.29 694.215 767.29C693.105 767.29 692.085 767.095 691.155 766.705C690.225 766.315 689.475 765.7 688.905 764.86C688.365 763.99 688.095 762.865 688.095 761.485V747.94H684.99V743.305H688.095V735.655H694.125V743.305H699.075V747.94H694.125V759.46C694.155 760.27 694.38 760.855 694.8 761.215C695.22 761.575 695.745 761.755 696.375 761.755C697.005 761.755 697.62 761.65 698.22 761.44C698.82 761.23 699.3 761.05 699.66 760.9L700.875 765.67ZM714.642 767.335C712.722 767.335 710.997 767.02 709.467 766.39C707.937 765.73 706.632 764.83 705.552 763.69C704.502 762.55 703.692 761.245 703.122 759.775C702.552 758.305 702.267 756.76 702.267 755.14C702.267 753.49 702.552 751.93 703.122 750.46C703.692 748.99 704.502 747.685 705.552 746.545C706.632 745.405 707.937 744.52 709.467 743.89C710.997 743.23 712.722 742.9 714.642 742.9C716.562 742.9 718.272 743.23 719.772 743.89C721.302 744.52 722.607 745.405 723.687 746.545C724.767 747.685 725.577 748.99 726.117 750.46C726.687 751.93 726.972 753.49 726.972 755.14C726.972 756.76 726.687 758.305 726.117 759.775C725.577 761.245 724.767 762.55 723.687 763.69C722.637 764.83 721.347 765.73 719.817 766.39C718.287 767.02 716.562 767.335 714.642 767.335ZM708.477 755.14C708.477 756.52 708.747 757.75 709.287 758.83C709.827 759.88 710.562 760.705 711.492 761.305C712.422 761.905 713.472 762.205 714.642 762.205C715.782 762.205 716.817 761.905 717.747 761.305C718.677 760.675 719.412 759.835 719.952 758.785C720.522 757.705 720.807 756.475 720.807 755.095C720.807 753.745 720.522 752.53 719.952 751.45C719.412 750.37 718.677 749.53 717.747 748.93C716.817 748.33 715.782 748.03 714.642 748.03C713.472 748.03 712.422 748.345 711.492 748.975C710.562 749.575 709.827 750.415 709.287 751.495C708.747 752.545 708.477 753.76 708.477 755.14ZM767.672 766.885H761.642V753.655C761.642 751.795 761.312 750.43 760.652 749.56C760.022 748.66 759.137 748.21 757.997 748.21C756.827 748.21 755.702 748.675 754.622 749.605C753.572 750.505 752.822 751.69 752.372 753.16V766.885H746.342V753.655C746.342 751.765 746.012 750.385 745.352 749.515C744.722 748.645 743.837 748.21 742.697 748.21C741.527 748.21 740.402 748.66 739.322 749.56C738.272 750.46 737.522 751.645 737.072 753.115V766.885H731.042V743.305H736.487V747.67C737.387 746.14 738.587 744.97 740.087 744.16C741.587 743.32 743.312 742.9 745.262 742.9C747.212 742.9 748.727 743.38 749.807 744.34C750.917 745.3 751.622 746.485 751.922 747.895C752.882 746.275 754.097 745.045 755.567 744.205C757.067 743.335 758.747 742.9 760.607 742.9C762.077 742.9 763.262 743.17 764.162 743.71C765.092 744.22 765.812 744.925 766.322 745.825C766.832 746.695 767.177 747.685 767.357 748.795C767.567 749.905 767.672 751.03 767.672 752.17V766.885ZM771.302 759.91C771.302 758.38 771.722 757.045 772.562 755.905C773.432 754.735 774.632 753.835 776.162 753.205C777.692 752.575 779.447 752.26 781.427 752.26C782.417 752.26 783.422 752.335 784.442 752.485C785.462 752.635 786.347 752.875 787.097 753.205V751.945C787.097 750.445 786.647 749.29 785.747 748.48C784.877 747.67 783.572 747.265 781.832 747.265C780.542 747.265 779.312 747.49 778.142 747.94C776.972 748.39 775.742 749.05 774.452 749.92L772.517 745.96C774.077 744.94 775.667 744.175 777.287 743.665C778.937 743.155 780.662 742.9 782.462 742.9C785.822 742.9 788.432 743.74 790.292 745.42C792.182 747.1 793.127 749.5 793.127 752.62V760.135C793.127 760.765 793.232 761.215 793.442 761.485C793.682 761.755 794.057 761.92 794.567 761.98V766.885C794.027 766.975 793.532 767.05 793.082 767.11C792.662 767.17 792.302 767.2 792.002 767.2C790.802 767.2 789.887 766.93 789.257 766.39C788.657 765.85 788.282 765.19 788.132 764.41L787.997 763.195C786.977 764.515 785.702 765.535 784.172 766.255C782.642 766.975 781.082 767.335 779.492 767.335C777.932 767.335 776.522 767.02 775.262 766.39C774.032 765.73 773.057 764.845 772.337 763.735C771.647 762.595 771.302 761.32 771.302 759.91ZM785.972 761.125C786.302 760.765 786.572 760.405 786.782 760.045C786.992 759.685 787.097 759.355 787.097 759.055V756.67C786.377 756.37 785.597 756.145 784.757 755.995C783.917 755.815 783.122 755.725 782.372 755.725C780.812 755.725 779.522 756.07 778.502 756.76C777.512 757.42 777.017 758.305 777.017 759.415C777.017 760.015 777.182 760.585 777.512 761.125C777.842 761.665 778.322 762.1 778.952 762.43C779.582 762.76 780.332 762.925 781.202 762.925C782.102 762.925 782.987 762.76 783.857 762.43C784.727 762.07 785.432 761.635 785.972 761.125ZM812.801 748.525C810.971 748.525 809.336 748.885 807.896 749.605C806.456 750.295 805.421 751.3 804.791 752.62V766.885H798.761V743.305H804.296V748.345C805.136 746.725 806.201 745.45 807.491 744.52C808.781 743.59 810.146 743.08 811.586 742.99C811.916 742.99 812.171 742.99 812.351 742.99C812.531 742.99 812.681 743.005 812.801 743.035V748.525ZM825.169 767.02C823.609 767.02 822.169 766.72 820.849 766.12C819.559 765.49 818.434 764.62 817.474 763.51C816.544 762.4 815.824 761.125 815.314 759.685C814.804 758.245 814.549 756.715 814.549 755.095C814.549 753.385 814.819 751.795 815.359 750.325C815.899 748.855 816.649 747.565 817.609 746.455C818.599 745.315 819.754 744.445 821.074 743.845C822.424 743.215 823.909 742.9 825.529 742.9C827.359 742.9 828.964 743.32 830.344 744.16C831.724 744.97 832.864 746.065 833.764 747.445V743.305H839.029V765.76C839.029 768.1 838.459 770.095 837.319 771.745C836.209 773.425 834.664 774.7 832.684 775.57C830.704 776.47 828.454 776.92 825.934 776.92C823.384 776.92 821.224 776.485 819.454 775.615C817.684 774.775 816.169 773.575 814.909 772.015L818.194 768.82C819.094 769.93 820.219 770.8 821.569 771.43C822.949 772.06 824.404 772.375 825.934 772.375C827.224 772.375 828.394 772.135 829.444 771.655C830.524 771.205 831.379 770.485 832.009 769.495C832.669 768.535 832.999 767.29 832.999 765.76V762.79C832.219 764.14 831.109 765.19 829.669 765.94C828.259 766.66 826.759 767.02 825.169 767.02ZM827.194 762.205C827.854 762.205 828.484 762.1 829.084 761.89C829.684 761.68 830.239 761.395 830.749 761.035C831.259 760.675 831.709 760.255 832.099 759.775C832.489 759.265 832.789 758.755 832.999 758.245V752.62C832.639 751.69 832.129 750.88 831.469 750.19C830.839 749.5 830.119 748.975 829.309 748.615C828.529 748.225 827.704 748.03 826.834 748.03C825.904 748.03 825.064 748.225 824.314 748.615C823.564 749.005 822.919 749.56 822.379 750.28C821.839 750.97 821.419 751.75 821.119 752.62C820.849 753.46 820.714 754.345 820.714 755.275C820.714 756.235 820.879 757.135 821.209 757.975C821.539 758.815 821.989 759.55 822.559 760.18C823.159 760.81 823.849 761.305 824.629 761.665C825.439 762.025 826.294 762.205 827.194 762.205ZM844.465 766.885V743.305H850.495V766.885H844.465ZM844.465 740.02V734.035H850.495V740.02H844.465ZM877.849 766.885H871.819V753.655C871.819 751.765 871.489 750.385 870.829 749.515C870.169 748.645 869.254 748.21 868.084 748.21C867.274 748.21 866.449 748.42 865.609 748.84C864.799 749.26 864.064 749.845 863.404 750.595C862.744 751.315 862.264 752.155 861.964 753.115V766.885H855.934V743.305H861.379V747.67C861.979 746.65 862.744 745.795 863.674 745.105C864.604 744.385 865.669 743.845 866.869 743.485C868.099 743.095 869.389 742.9 870.739 742.9C872.209 742.9 873.409 743.17 874.339 743.71C875.299 744.22 876.019 744.925 876.499 745.825C877.009 746.695 877.354 747.685 877.534 748.795C877.744 749.905 877.849 751.03 877.849 752.17V766.885Z" fill="black"/>
</svg>
