<svg width="200" height="134" viewBox="0 0 200 134" fill="none" xmlns="http://www.w3.org/2000/svg">
<path d="M200 0H0V133.333H200V0Z" fill="#FF0000"/>
<path d="M149.999 0H49.999V133.333H149.999V0Z" fill="white"/>
<path d="M99.9991 24.97L92.9192 38.1669C92.1169 39.611 90.673 39.4706 89.2289 38.6683L84.0944 36.0209L87.9051 56.2977C88.7074 60.0081 86.1402 60.0081 84.8566 58.4036L75.9116 48.3956L74.4674 53.4898C74.3069 54.1517 73.5648 54.8537 72.4617 54.6932L61.1503 52.3065L64.1186 63.1168C64.7604 65.5235 65.2416 66.5063 63.4766 67.1481L59.4453 69.0334L78.92 84.8577C79.6821 85.4594 80.0832 86.5223 79.8024 87.5051L78.0976 93.1008C84.7964 92.3186 90.8134 91.1553 97.5121 90.4534C98.1138 90.3932 99.0964 91.3759 99.0964 92.0578L98.214 112.555H101.483L100.962 92.118C100.962 91.4361 101.864 90.4132 102.446 90.4734C109.145 91.1954 115.161 92.3587 121.86 93.1208L120.155 87.5251C119.875 86.5424 120.276 85.4794 121.038 84.8777L140.512 69.0534L136.481 67.1682C134.716 66.5264 135.198 65.5436 135.839 63.1368L138.808 52.3266L127.496 54.7133C126.393 54.8737 125.651 54.1717 125.49 53.5099L124.046 48.4156L115.101 58.4237C113.838 60.0282 111.251 60.0282 112.053 56.3178L115.863 36.041L110.729 38.6884C109.285 39.4906 107.841 39.631 107.039 38.187L99.9589 24.99L99.9991 24.97Z" fill="#FF0000"/>
</svg>
