<svg width="200" height="134" viewBox="0 0 200 134" fill="none" xmlns="http://www.w3.org/2000/svg">
<path d="M0 0H200V133.333H0V0Z" fill="#00008B"/>
<path d="M53.0689 76.434L55.9169 85.3188L64.6614 82.0296L59.4869 89.8114L67.5295 94.5647L58.2234 95.387L59.507 104.633L53.0689 97.8539L46.6309 104.633L47.9145 95.387L38.6084 94.5647L46.6309 89.8114L41.4565 82.0296L50.2009 85.3188L53.0689 76.434Z" fill="white"/>
<path d="M151.966 92.4387L153.33 96.6906L157.481 95.1062L155.014 98.8166L158.845 101.083L154.413 101.464L155.014 105.876L151.966 102.647L148.897 105.876L149.499 101.464L145.066 101.083L148.897 98.8166L146.43 95.1062L150.602 96.6906L151.966 92.4387Z" fill="white"/>
<path d="M127.236 53.3091L128.599 57.541L132.751 55.9566L130.304 59.6669L134.115 61.9333L129.682 62.3144L130.304 66.7267L127.236 63.4977L124.167 66.7267L124.789 62.3144L120.356 61.9333L124.167 59.6669L121.72 55.9566L125.872 57.541L127.236 53.3091Z" fill="white"/>
<path d="M151.966 26.5142L153.33 30.746L157.481 29.1816L155.014 32.872L158.845 35.1584L154.413 35.5394L155.014 39.9518L151.966 36.7227L148.897 39.9518L149.499 35.5394L145.066 35.1584L148.897 32.872L146.43 29.1816L150.602 30.746L151.966 26.5142Z" fill="white"/>
<path d="M173.927 46.7108L175.291 50.9426L179.463 49.3582L176.996 53.0686L180.826 55.3349L176.394 55.736L176.996 60.1283L173.927 56.9193L170.879 60.1283L171.48 55.736L167.048 55.3349L170.879 53.0686L168.412 49.3582L172.583 50.9426L173.927 46.7108Z" fill="white"/>
<path d="M161.854 66.5463L162.917 69.1937L165.765 69.3942L163.599 71.2394L164.28 74.0072L161.854 72.5029L159.427 74.0072L160.109 71.2394L157.923 69.3942L160.771 69.1937L161.854 66.5463Z" fill="white"/>
<path d="M0 44.4444V59.7272L22.9242 44.4444H0Z" fill="#00008B"/>
<path d="M89.5901 0H61.1104V18.9932L89.5901 0Z" fill="#00008B"/>
<path d="M10.4102 66.6667H38.8899V47.6735L10.4102 66.6667Z" fill="#00008B"/>
<path d="M0 6.93945V22.2222H22.9242L0 6.93945Z" fill="#00008B"/>
<path d="M38.8899 0H10.4102L38.8899 18.9932V0Z" fill="#00008B"/>
<path d="M99.9995 59.7272V44.4444H77.0752L99.9995 59.7272Z" fill="#00008B"/>
<path d="M99.9995 22.2222V6.93945L77.0752 22.2222H99.9995Z" fill="#00008B"/>
<path d="M61.1104 66.6667H89.5901L61.1104 47.6735V66.6667Z" fill="#00008B"/>
<path d="M38.8889 22.2222V18.9932L10.4091 0H0L33.3333 22.2222H38.8889Z" fill="white"/>
<path d="M26.394 22.2222L0 4.633V6.93945L22.9242 22.2222H26.394Z" fill="white"/>
<path d="M61.1104 44.4444V47.6734L89.5901 66.6666H99.9993L66.6659 44.4444H61.1104Z" fill="white"/>
<path d="M38.8889 45.367L6.93945 66.6666H10.4091L38.8889 47.6735V45.367Z" fill="white"/>
<path d="M22.9242 44.4444L0 59.7272V66.6666L33.3333 44.4444H22.9242Z" fill="white"/>
<path d="M73.6064 44.4444L100 62.0336V59.7272L77.0761 44.4444H73.6064Z" fill="white"/>
<path d="M77.076 22.2222L100 6.93943V0L66.667 22.2222H77.076Z" fill="white"/>
<path d="M61.1104 21.2996L93.0598 0H89.5901L61.1104 18.9932V21.2996Z" fill="white"/>
<path d="M33.3333 22.2222L0 0V4.63297L26.394 22.2222H33.3333Z" fill="#CF142B"/>
<path d="M73.6063 44.4444H66.667L100 66.6666V62.0336L73.6063 44.4444Z" fill="#CF142B"/>
<path d="M38.8889 44.4444H33.3333L0 66.6666H6.93947L38.8889 45.367V44.4444Z" fill="#CF142B"/>
<path d="M61.1104 22.2222H66.6659L99.9993 0H93.0598L61.1104 21.2996V22.2222Z" fill="#CF142B"/>
<path d="M56.6777 26.6747H99.9991V22.2222H77.0748H66.6658H61.1102V21.2996V18.9932V0H56.6777V26.6747Z" fill="white"/>
<path d="M61.1102 44.4444H66.6658H73.6051H77.0748H99.9991V39.9919H56.6777V66.6666H61.1102V47.6734V44.4444Z" fill="white"/>
<path d="M43.3414 39.9919H0V44.4444H22.9242H33.3333H38.8889V45.367V47.6734V66.6666H43.3414V39.9919Z" fill="white"/>
<path d="M43.3414 26.6747V0H38.8889V18.9932V22.2222H33.3333H26.394H22.9242H0V26.6747H43.3414Z" fill="white"/>
<path d="M56.6787 39.992H100V33.3333V26.6747H56.6787V0H50H43.3414V26.6747H0V33.3333V39.992H43.3414V66.6666H50H56.6787V39.992Z" fill="#CF142B"/>
</svg>
