<svg width="200" height="134" viewBox="0 0 200 134" fill="none" xmlns="http://www.w3.org/2000/svg">
<path d="M200 0H0V133.333H200V0Z" fill="#DE2910"/>
<path d="M100.001 66.6466C76.6153 56.7589 86.9843 26.2936 109.347 27.8179C104.814 30.1444 104.172 34.4765 106.76 38.5078C109.648 43.0004 106.499 50.2607 102.588 52.0056C96.15 54.8937 94.8664 62.6153 100.021 66.6266L100.001 66.6466Z" fill="white"/>
<path d="M98.7371 44.6449L97.4134 46.7107L96.932 44.304L94.5654 43.6822L96.7115 42.4788L96.571 40.032L98.3761 41.6967L100.663 40.7941L99.6396 43.0203L101.204 44.9056L98.7772 44.6249L98.7371 44.6449Z" fill="#DE2910"/>
<path d="M100.12 66.3859C97.2917 64.9419 95.0053 61.9134 94.0226 58.2832C92.8794 54.1316 93.5412 49.6791 95.8276 46.0489L95.3462 45.7481C92.9796 49.5187 92.2977 54.1316 93.481 58.4436C94.524 62.2744 96.8705 65.363 99.879 66.9073L100.14 66.3859H100.12Z" fill="#DE2910"/>
<path d="M100.021 66.6466C102.187 41.3357 134.377 41.797 139.832 63.5379C136.222 59.9478 131.89 60.6699 128.861 64.3803C125.472 68.5319 117.61 67.7496 114.722 64.5808C109.988 59.3662 102.247 60.5294 100.021 66.6466Z" fill="white"/>
<path d="M120.557 58.6442L118.19 58.0224L120.336 56.819L120.196 54.3722L122.001 56.0369L124.288 55.1343L123.265 57.3606L124.829 59.2459L122.402 58.9651L121.079 61.0309L120.597 58.6241L120.557 58.6442Z" fill="#DE2910"/>
<path d="M100.3 66.7068C100.802 63.558 102.988 60.4693 106.117 58.4035C109.707 56.0369 114.159 55.2748 118.311 56.3377L118.451 55.7762C114.139 54.6931 109.526 55.4753 105.796 57.9222C102.486 60.1083 100.26 63.2772 99.7188 66.6266L100.3 66.7268V66.7068Z" fill="#DE2910"/>
<path d="M100.021 66.6866C124.75 60.9305 134.276 91.6766 115.283 103.59C117.57 99.0572 115.564 95.1463 111.112 93.4214C106.118 91.476 104.433 83.7544 106.559 80.044C110.069 73.9269 106.559 66.9273 100.041 66.6866H100.021Z" fill="white"/>
<path d="M113.98 83.7344L113.839 81.2875L115.645 82.9522L117.931 82.0497L116.908 84.2759L118.472 86.1612L116.046 85.8804L114.722 87.9462L114.241 85.5394L111.874 84.9177L114.02 83.7143L113.98 83.7344Z" fill="#DE2910"/>
<path d="M100.06 66.9675C103.209 66.4861 106.819 67.5892 109.747 69.9358C113.097 72.6233 115.203 76.6145 115.483 80.8865L116.065 80.8464C115.764 76.414 113.598 72.2623 110.108 69.4745C107 66.9875 103.309 65.8644 99.96 66.3859L100.04 66.9675H100.06Z" fill="#DE2910"/>
<path d="M100 66.6867C113.117 88.4276 86.8234 106.979 69.6152 92.5992C74.6493 93.3814 77.7179 90.2527 77.9987 85.4793C78.2995 80.1444 85.1187 76.1331 89.3104 77.0156C96.2097 78.4597 101.785 72.9643 100 66.6867Z" fill="white"/>
<path d="M88.087 85.2387L90.3734 84.3362L89.3505 86.5624L90.9149 88.4477L88.4881 88.1669L87.1644 90.2327L86.6831 87.826L84.3164 87.2042L86.4624 86.0009L86.322 83.554L88.1271 85.2186L88.087 85.2387Z" fill="#DE2910"/>
<path d="M99.7391 66.8271C101.183 69.6551 101.243 73.4457 99.9196 76.9555C98.3953 80.9868 95.2465 84.1958 91.2754 85.8003L91.496 86.3417C95.6276 84.6971 98.8968 81.3477 100.461 77.1761C101.865 73.4657 101.785 69.5949 100.261 66.5664L99.7391 66.8271Z" fill="#DE2910"/>
<path d="M99.9791 66.6665C83.3525 85.8603 57.5804 66.5863 65.9438 45.7881C66.7661 50.8021 70.677 52.7676 75.31 51.5643C80.4845 50.2004 86.4011 55.4552 86.8624 59.7071C87.6245 66.7267 94.5639 70.3168 99.9791 66.6665Z" fill="white"/>
<path d="M78.6601 61.0709L80.2245 62.9561L77.7976 62.6754L76.474 64.7412L75.9926 62.3344L73.626 61.7127L75.772 60.5093L75.6316 58.0624L77.4366 59.7271L79.7231 58.8246L78.7002 61.0508L78.6601 61.0709Z" fill="#DE2910"/>
<path d="M99.7788 66.466C97.5325 68.7122 93.9425 69.9357 90.192 69.7753C85.8999 69.5747 81.8486 67.5691 79.1209 64.2798L78.6797 64.6408C81.5277 68.0504 85.7194 70.1363 90.1719 70.3368C94.143 70.5173 97.7932 69.2538 100.2 66.8671L99.7988 66.4459L99.7788 66.466Z" fill="#DE2910"/>
</svg>
