<svg width="200" height="134" viewBox="0 0 200 134" fill="none" xmlns="http://www.w3.org/2000/svg">
<path d="M200 0H0V133.333H200V0Z" fill="#00247D"/>
<path d="M154.433 33.8749V37.6856L162.054 33.8749H154.433Z" fill="white"/>
<path d="M155.898 38.3474L153.651 35.2588L162.055 33.8548L155.898 38.3274V38.3474Z" fill="white"/>
<path d="M154.433 33.8749V37.6856L146.812 33.8749H154.433Z" fill="white"/>
<path d="M152.988 38.3474L155.235 35.2588L146.831 33.8548L152.988 38.3274V38.3474Z" fill="white"/>
<path d="M156.779 35.5997L153.169 36.783L159.146 42.84L156.799 35.5997H156.779Z" fill="white"/>
<path d="M152.989 38.3474L155.236 35.2588L159.167 42.82L153.009 38.3474H152.989Z" fill="white"/>
<path d="M152.086 35.5997L155.696 36.783L154.433 28.3594L152.086 35.5997Z" fill="white"/>
<path d="M156.779 35.5997L153.169 36.783L154.432 28.3594L156.779 35.5997Z" fill="white"/>
<path d="M152.086 35.5997L155.696 36.783L149.72 42.84L152.066 35.5997H152.086Z" fill="white"/>
<path d="M155.897 38.3474L153.651 35.2588L149.72 42.82L155.877 38.3474H155.897Z" fill="white"/>
<path d="M154.433 34.7172V37.2242L159.467 34.7172H154.433Z" fill="#CC142B"/>
<path d="M155.395 37.6856L153.911 35.6599L159.467 34.7373L155.395 37.6856Z" fill="#CC142B"/>
<path d="M154.433 34.7172V37.2242L149.398 34.7172H154.433Z" fill="#CC142B"/>
<path d="M153.47 37.6856L154.954 35.6599L149.398 34.7373L153.47 37.6856Z" fill="#CC142B"/>
<path d="M155.998 35.8403L153.611 36.6226L157.562 40.6338L155.998 35.8403Z" fill="#CC142B"/>
<path d="M153.471 37.6856L154.955 35.6599L157.542 40.6539L153.471 37.7057V37.6856Z" fill="#CC142B"/>
<path d="M152.887 35.8403L155.274 36.6226L154.432 31.0671L152.867 35.8604L152.887 35.8403Z" fill="#CC142B"/>
<path d="M155.996 35.8403L153.609 36.6226L154.452 31.0671L156.016 35.8604L155.996 35.8403Z" fill="#CC142B"/>
<path d="M152.889 35.8403L155.275 36.6226L151.324 40.6338L152.889 35.8403Z" fill="#CC142B"/>
<path d="M155.396 37.6856L153.911 35.6599L151.324 40.6539L155.396 37.7057V37.6856Z" fill="#CC142B"/>
<path d="M174.369 51.4843V54.8737L181.148 51.4843H174.369Z" fill="white"/>
<path d="M175.654 55.4553L173.668 52.7076L181.149 51.4642L175.674 55.4553H175.654Z" fill="white"/>
<path d="M174.37 51.4843V54.8737L167.591 51.4843H174.37Z" fill="white"/>
<path d="M173.067 55.4553L175.052 52.7076L167.571 51.4642L173.047 55.4553H173.067Z" fill="white"/>
<path d="M176.457 52.9885L173.228 54.0313L178.542 59.4264L176.457 52.9885Z" fill="white"/>
<path d="M173.066 55.4553L175.052 52.7076L178.542 59.4264L173.066 55.4353V55.4553Z" fill="white"/>
<path d="M172.264 52.9885L175.493 54.0313L174.37 46.5504L172.284 52.9885H172.264Z" fill="white"/>
<path d="M176.457 52.9885L173.228 54.0313L174.351 46.5504L176.436 52.9885H176.457Z" fill="white"/>
<path d="M172.264 52.9885L175.493 54.0313L170.178 59.4264L172.264 52.9885Z" fill="white"/>
<path d="M175.653 55.4553L173.668 52.7076L170.178 59.4264L175.653 55.4353V55.4553Z" fill="white"/>
<path d="M174.369 52.3065V54.4124L178.561 52.3065H174.369Z" fill="#CC142B"/>
<path d="M175.172 54.7734L173.948 53.0687L178.581 52.3065L175.192 54.7734H175.172Z" fill="#CC142B"/>
<path d="M174.369 52.3065V54.4124L170.178 52.3065H174.369Z" fill="#CC142B"/>
<path d="M173.568 54.7734L174.791 53.0687L170.158 52.3065L173.548 54.7734H173.568Z" fill="#CC142B"/>
<path d="M175.654 53.2492L173.668 53.8909L176.957 57.2203L175.654 53.2291V53.2492Z" fill="#CC142B"/>
<path d="M173.568 54.7734L174.792 53.0687L176.958 57.2203L173.568 54.7534V54.7734Z" fill="#CC142B"/>
<path d="M173.067 53.2492L175.052 53.8909L174.351 49.2579L173.047 53.2492H173.067Z" fill="#CC142B"/>
<path d="M175.654 53.2492L173.668 53.8909L174.37 49.2579L175.674 53.2492H175.654Z" fill="#CC142B"/>
<path d="M173.066 53.2492L175.052 53.8909L171.763 57.2203L173.066 53.2291V53.2492Z" fill="#CC142B"/>
<path d="M175.172 54.7734L173.948 53.0687L171.782 57.2203L175.172 54.7534V54.7734Z" fill="#CC142B"/>
<path d="M131.188 57.2604V61.071L138.809 57.2604H131.188Z" fill="white"/>
<path d="M132.653 61.753L130.406 58.6643L138.81 57.2604L132.653 61.7329V61.753Z" fill="white"/>
<path d="M131.188 57.2604V61.071L123.566 57.2604H131.188Z" fill="white"/>
<path d="M129.743 61.753L131.989 58.6643L123.586 57.2604L129.743 61.7329V61.753Z" fill="white"/>
<path d="M133.535 58.9852L129.925 60.1685L135.902 66.2255L133.555 58.9852H133.535Z" fill="white"/>
<path d="M129.744 61.753L131.99 58.6643L135.921 66.2255L129.764 61.753H129.744Z" fill="white"/>
<path d="M128.841 58.9852L132.451 60.1685L131.187 51.745L128.841 58.9852Z" fill="white"/>
<path d="M133.535 58.9852L129.925 60.1685L131.188 51.745L133.535 58.9852Z" fill="white"/>
<path d="M128.842 58.9852L132.452 60.1685L126.476 66.2255L128.822 58.9852H128.842Z" fill="white"/>
<path d="M132.653 61.753L130.407 58.6643L126.476 66.2255L132.633 61.753H132.653Z" fill="white"/>
<path d="M131.188 58.1028V60.6098L136.222 58.1028H131.188Z" fill="#CC142B"/>
<path d="M132.151 61.0711L130.667 59.0454L136.223 58.1229L132.151 61.0711Z" fill="#CC142B"/>
<path d="M131.188 58.1028V60.6098L126.154 58.1028H131.188Z" fill="#CC142B"/>
<path d="M130.226 61.0711L131.71 59.0454L126.154 58.1229L130.226 61.0711Z" fill="#CC142B"/>
<path d="M132.754 59.246L130.367 60.0281L134.318 64.0393L132.754 59.246Z" fill="#CC142B"/>
<path d="M130.226 61.071L131.71 59.0453L134.297 64.0393L130.226 61.0911V61.071Z" fill="#CC142B"/>
<path d="M129.643 59.246L132.03 60.0281L131.187 54.4726L129.623 59.266L129.643 59.246Z" fill="#CC142B"/>
<path d="M132.752 59.246L130.365 60.0281L131.208 54.4726L132.772 59.266L132.752 59.246Z" fill="#CC142B"/>
<path d="M129.643 59.246L132.03 60.0281L128.079 64.0393L129.643 59.246Z" fill="#CC142B"/>
<path d="M132.151 61.071L130.666 59.0453L128.079 64.0393L132.151 61.0911V61.071Z" fill="#CC142B"/>
<path d="M154.433 93.9632V98.195L162.876 93.9632H154.433Z" fill="white"/>
<path d="M156.057 98.9371L153.57 95.5275L162.896 93.9833L156.057 98.9572V98.9371Z" fill="white"/>
<path d="M154.433 93.9632V98.195L145.989 93.9632H154.433Z" fill="white"/>
<path d="M152.828 98.9371L155.315 95.5275L145.989 93.9833L152.828 98.9572V98.9371Z" fill="white"/>
<path d="M157.04 95.8685L153.028 97.1721L159.667 103.911L157.06 95.8685H157.04Z" fill="white"/>
<path d="M152.828 98.9371L155.315 95.5275L159.667 103.911L152.828 98.9371Z" fill="white"/>
<path d="M151.825 95.8685L155.836 97.1721L154.433 87.826L151.825 95.8685Z" fill="white"/>
<path d="M157.04 95.8685L153.028 97.1721L154.432 87.826L157.04 95.8685Z" fill="white"/>
<path d="M151.825 95.8685L155.836 97.1721L149.197 103.911L151.805 95.8685H151.825Z" fill="white"/>
<path d="M156.056 98.9371L153.569 95.5275L149.217 103.911L156.056 98.9371Z" fill="white"/>
<path d="M154.433 94.8055V97.7338L160.309 94.8055H154.433Z" fill="#CC142B"/>
<path d="M155.556 98.2553L153.831 95.8885L160.309 94.8055L155.556 98.2553Z" fill="#CC142B"/>
<path d="M154.433 94.8055V97.7338L148.557 94.8055H154.433Z" fill="#CC142B"/>
<path d="M153.31 98.2553L155.035 95.8885L148.557 94.8055L153.31 98.2553Z" fill="#CC142B"/>
<path d="M156.258 96.1292L153.471 97.0317L158.084 101.705L156.279 96.1292H156.258Z" fill="#CC142B"/>
<path d="M153.311 98.2552L155.035 95.8885L158.064 101.705L153.311 98.2552Z" fill="#CC142B"/>
<path d="M152.629 96.1292L155.417 97.0318L154.434 90.5536L152.629 96.1292Z" fill="#CC142B"/>
<path d="M156.258 96.1292L153.471 97.0318L154.453 90.5536L156.258 96.1292Z" fill="#CC142B"/>
<path d="M152.628 96.1292L155.416 97.0317L150.803 101.705L152.608 96.1292H152.628Z" fill="#CC142B"/>
<path d="M155.556 98.2552L153.831 95.8885L150.803 101.705L155.556 98.2552Z" fill="#CC142B"/>
<path d="M0 44.4445V59.7273L22.9242 44.4445H0Z" fill="#00247D"/>
<path d="M89.5901 0H61.1104V18.9932L89.5901 0Z" fill="#00247D"/>
<path d="M10.4102 66.6668H38.8899V47.6735L10.4102 66.6668Z" fill="#00247D"/>
<path d="M0 6.93945V22.2222H22.9242L0 6.93945Z" fill="#00247D"/>
<path d="M38.8899 0H10.4102L38.8899 18.9932V0Z" fill="#00247D"/>
<path d="M99.9994 59.7273V44.4445H77.0752L99.9994 59.7273Z" fill="#00247D"/>
<path d="M99.9994 22.2222V6.93945L77.0752 22.2222H99.9994Z" fill="#00247D"/>
<path d="M61.1104 66.6668H89.5901L61.1104 47.6735V66.6668Z" fill="#00247D"/>
<path d="M38.8889 22.2223V18.9933L10.4091 0H0L33.3333 22.2223H38.8889Z" fill="white"/>
<path d="M26.3939 22.2223L0 4.633V6.9395L22.9242 22.2223H26.3939Z" fill="white"/>
<path d="M61.1104 44.4445V47.6735L89.5901 66.6668H99.9993L66.6659 44.4445H61.1104Z" fill="white"/>
<path d="M38.8889 45.367L6.93945 66.6668H10.4091L38.8889 47.6735V45.367Z" fill="white"/>
<path d="M22.9242 44.4445L0 59.7273V66.6668L33.3333 44.4445H22.9242Z" fill="white"/>
<path d="M73.6064 44.4445L100 62.0337V59.7273L77.0762 44.4445H73.6064Z" fill="white"/>
<path d="M77.0761 22.2223L100 6.93948V0L66.667 22.2223H77.0761Z" fill="white"/>
<path d="M61.1104 21.2996L93.0599 0H89.5901L61.1104 18.9932V21.2996Z" fill="white"/>
<path d="M33.3333 22.2223L0 0V4.63297L26.3939 22.2223H33.3333Z" fill="#CF142B"/>
<path d="M73.6064 44.4445H66.667L100 66.6668V62.0337L73.6064 44.4445Z" fill="#CF142B"/>
<path d="M38.8889 44.4445H33.3333L0 66.6668H6.93942L38.8889 45.367V44.4445Z" fill="#CF142B"/>
<path d="M61.1104 22.2223H66.6659L99.9993 0H93.0599L61.1104 21.2996V22.2223Z" fill="#CF142B"/>
<path d="M56.6582 26.6748H99.9995V22.2223H77.0754H66.6662H61.1106V21.2996V18.9933V0H56.6582V26.6748Z" fill="white"/>
<path d="M61.1106 44.4445H66.6662H73.6056H77.0754H99.9995V40.0121H56.6582V66.6668H61.1106V47.6736V44.4445Z" fill="white"/>
<path d="M43.3413 40.0121H0V44.4445H22.9242H33.3333H38.8889V45.367V47.6736V66.6668H43.3413V40.0121Z" fill="white"/>
<path d="M43.3413 26.6748V0H38.8889V18.9933V22.2223H33.3333H26.3939H22.9242H0V26.6748H43.3413Z" fill="white"/>
<path d="M56.6587 40.0121H100V33.3333V26.6748H56.6587V0H50H43.3413V26.6748H0V33.3333V40.0121H43.3413V66.6668H50H56.6587V40.0121Z" fill="#CF142B"/>
</svg>
