<svg width="200" height="134" viewBox="0 0 200 134" fill="none" xmlns="http://www.w3.org/2000/svg">
<path d="M200 0H0V66.6666H200V0Z" fill="#ED2939"/>
<path d="M200 66.6666H0V133.333H200V66.6666Z" fill="white"/>
<path d="M29.1013 33.3333C29.1013 20.5776 39.1897 10.1885 51.805 9.66708C49.2177 8.76455 46.4299 8.26312 43.5419 8.26312C29.7031 8.26312 18.4717 19.4946 18.4717 33.3333C18.4717 47.172 29.7031 58.4035 43.5419 58.4035C46.45 58.4035 49.2177 57.902 51.805 56.9995C39.1696 56.4781 29.1013 46.089 29.1013 33.3333Z" fill="white"/>
<path d="M46.63 33.935L43.2205 31.3277L39.8111 33.935L41.1145 29.7232L37.7051 27.1359H41.9168L43.2004 22.9242L44.5041 27.1359H48.7159L45.3064 29.7232L46.6099 33.935H46.63Z" fill="white"/>
<path d="M73.3656 33.935L69.9559 31.3277L66.5464 33.935L67.8501 29.7232L64.4404 27.1359H68.6524L69.9358 22.9242L71.2395 27.1359H75.4512L72.0418 29.7232L73.3455 33.935H73.3656Z" fill="white"/>
<path d="M60.0069 24.0272L56.5975 21.4199L53.1878 24.0272L54.4915 19.8155L51.082 17.2282H55.2938L56.5774 13.0164L57.8808 17.2282H62.0928L58.6831 19.8155L59.9868 24.0272H60.0069Z" fill="white"/>
<path d="M51.6436 49.7994L48.2342 47.192L44.8247 49.7994L46.1282 45.5876L42.7188 43.0004H46.9305L48.2141 38.7885L49.5178 43.0004H53.7296L50.3201 45.5876L51.6236 49.7994H51.6436Z" fill="white"/>
<path d="M68.3509 49.7994L64.9412 47.192L61.5318 49.7994L62.8355 45.5876L59.4258 43.0004H63.6378L64.9211 38.7885L66.2248 43.0004H70.4366L67.0271 45.5876L68.3308 49.7994H68.3509Z" fill="white"/>
</svg>
