<svg width="200" height="134" viewBox="0 0 200 134" fill="none" xmlns="http://www.w3.org/2000/svg">
<path d="M0 88.8885V119.454L45.8483 88.8885H0Z" fill="#00247D"/>
<path d="M179.182 0H122.223V37.9862L179.182 0Z" fill="#00247D"/>
<path d="M20.8184 133.333H77.7776V95.3666L20.8184 133.333Z" fill="#00247D"/>
<path d="M0 13.8788V44.4442H45.8483L0 13.8788Z" fill="#00247D"/>
<path d="M77.7776 0H20.8184L77.7776 37.9862V0Z" fill="#00247D"/>
<path d="M200 119.454V88.8885H154.151L200 119.454Z" fill="#00247D"/>
<path d="M200 44.4442V13.8788L154.151 44.4442H200Z" fill="#00247D"/>
<path d="M122.223 133.333H179.182L122.223 95.3666V133.333Z" fill="#00247D"/>
<path d="M77.7775 44.4442V37.9862L20.8182 0H0L66.6665 44.4442H77.7775Z" fill="white"/>
<path d="M52.7876 44.4442L0 9.24579V13.8787L45.8483 44.4442H52.7876Z" fill="white"/>
<path d="M122.223 88.8885V95.3666L179.182 133.333H200L133.334 88.8885H122.223Z" fill="white"/>
<path d="M77.7775 90.7335L13.8789 133.333H20.8182L77.7775 95.3666V90.7335Z" fill="white"/>
<path d="M45.8483 88.8885L0 119.454V133.333L66.6665 88.8885H45.8483Z" fill="white"/>
<path d="M147.212 88.8885L200 124.087V119.454L154.151 88.8885H147.212Z" fill="white"/>
<path d="M154.152 44.4442L200 13.8788V0L133.334 44.4442H154.152Z" fill="white"/>
<path d="M122.223 42.5991L186.121 0H179.182L122.223 37.9862V42.5991Z" fill="white"/>
<path d="M66.6665 44.4442L0 0V9.24582L52.7876 44.4442H66.6665Z" fill="#CF142B"/>
<path d="M147.213 88.8885H133.334L200 133.333V124.087L147.213 88.8885Z" fill="#CF142B"/>
<path d="M77.7775 88.8885H66.6665L0 133.333H13.8789L77.7775 90.7336V88.8885Z" fill="#CF142B"/>
<path d="M122.223 44.4442H133.334L200 0H186.121L122.223 42.5991V44.4442Z" fill="#CF142B"/>
<path d="M113.336 53.329H199.998V44.4442H154.15H133.332H122.221V42.5991V37.9862V0H113.336V53.329Z" fill="white"/>
<path d="M122.221 88.8885H133.332H147.21H154.15H199.998V80.0035H113.336V133.333H122.221V95.3666V88.8885Z" fill="white"/>
<path d="M86.6623 80.0035H0V88.8885H45.8483H66.6665H77.7775V90.7335V95.3666V133.333H86.6623V80.0035Z" fill="white"/>
<path d="M86.6623 53.329V0H77.7775V37.9862V44.4442H66.6665H52.7876H45.8483H0V53.329H86.6623Z" fill="white"/>
<path d="M113.337 80.0036H199.999V66.6662V53.329H113.337V0H99.9996H86.6623V53.329H0V66.6662V80.0036H86.6623V133.333H99.9996H113.337V80.0036Z" fill="#CF142B"/>
</svg>
