<svg width="200" height="134" viewBox="0 0 200 134" fill="none" xmlns="http://www.w3.org/2000/svg">
<path d="M200 0H0V133.333H200V0Z" fill="#0038A8"/>
<path d="M200 66.6667H0V133.333H200V66.6667Z" fill="#CE1126"/>
<path d="M86.6025 66.6667L0 133.333V0" fill="white"/>
<path d="M32.6112 78.3794C39.0799 78.3794 44.3241 73.1355 44.3241 66.6667C44.3241 60.1979 39.0799 54.9539 32.6112 54.9539C26.1424 54.9539 20.8984 60.1979 20.8984 66.6667C20.8984 73.1355 26.1424 78.3794 32.6112 78.3794Z" fill="#FCD116"/>
<path d="M7.88184 66.6667L9.40612 68.1909L32.631 66.6667L9.40612 65.1424L7.88184 66.6667Z" fill="#FCD116"/>
<path d="M10.4883 69.5748L11.7318 70.8182L32.6301 66.6667L10.4883 69.5748Z" fill="#FCD116"/>
<path d="M10.4883 63.7585L11.7318 62.5151L32.6301 66.6667L10.4883 63.7585Z" fill="#FCD116"/>
<path d="M15.1221 49.1777V51.3237L32.611 66.6667L17.268 49.1777H15.1221Z" fill="#FCD116"/>
<path d="M14.9014 53.0686V54.8335L32.6108 66.6667L14.9014 53.0686Z" fill="#FCD116"/>
<path d="M19.0322 48.9571H20.7972L32.6303 66.6667L19.0322 48.9571Z" fill="#FCD116"/>
<path d="M32.6112 41.9375L31.0869 43.4618L32.6112 66.6867L34.1355 43.4618L32.6112 41.9375Z" fill="#FCD116"/>
<path d="M29.7025 44.5247L28.459 45.7681L32.6105 66.6667L29.7025 44.5247Z" fill="#FCD116"/>
<path d="M35.5391 44.5247L36.7826 45.7681L32.6309 66.6667L35.5391 44.5247Z" fill="#FCD116"/>
<path d="M50.0995 49.1777H47.9533L32.6104 66.6667L50.0995 51.3237V49.1777Z" fill="#FCD116"/>
<path d="M46.2085 48.9571H44.4435L32.6104 66.6667L46.2085 48.9571Z" fill="#FCD116"/>
<path d="M50.3201 53.0686V54.8335L32.6104 66.6667L50.3201 53.0686Z" fill="#FCD116"/>
<path d="M57.3598 66.6667L55.8355 65.1424L32.6104 66.6667L55.8355 68.1909L57.3598 66.6667Z" fill="#FCD116"/>
<path d="M54.7524 63.7585L53.5089 62.5151L32.6104 66.6667L54.7524 63.7585Z" fill="#FCD116"/>
<path d="M54.7524 69.5748L53.5089 70.8182L32.6104 66.6667L54.7524 69.5748Z" fill="#FCD116"/>
<path d="M50.0995 84.1556V82.0096L32.6104 66.6667L47.9533 84.1556H50.0995Z" fill="#FCD116"/>
<path d="M50.3201 80.2647V78.4998L32.6104 66.6667L50.3201 80.2647Z" fill="#FCD116"/>
<path d="M46.2085 84.3762H44.4435L32.6104 66.6667L46.2085 84.3762Z" fill="#FCD116"/>
<path d="M32.6112 91.4159L34.1355 89.8916L32.6112 66.6667L31.0869 89.8916L32.6112 91.4159Z" fill="#FCD116"/>
<path d="M35.5391 88.8086L36.7826 87.5652L32.6309 66.6667L35.5391 88.8086Z" fill="#FCD116"/>
<path d="M29.7025 88.8086L28.459 87.5652L32.6105 66.6667L29.7025 88.8086Z" fill="#FCD116"/>
<path d="M15.1221 84.1556H17.268L32.611 66.6667L15.1221 82.0096V84.1556Z" fill="#FCD116"/>
<path d="M19.0322 84.3762H20.7972L32.6303 66.6667L19.0322 84.3762Z" fill="#FCD116"/>
<path d="M14.9014 80.2647V78.4998L32.6108 66.6667L14.9014 80.2647Z" fill="#FCD116"/>
<path d="M74.3677 66.6667L69.9552 68.1909L69.855 72.8439L67.0471 69.1336L62.5947 70.4773L65.2621 66.6466H74.3677V66.6667Z" fill="#FCD116"/>
<path d="M74.3677 66.6667L69.9552 65.1424L69.855 60.4894L67.0471 64.1997L62.5947 62.856L65.2621 66.6867H74.3677V66.6667Z" fill="#FCD116"/>
<path d="M6.89884 116.887L7.78119 112.314L3.79004 109.908L8.42312 109.326L9.48616 104.793L11.4717 109.005L6.91891 116.907L6.89884 116.887Z" fill="#FCD116"/>
<path d="M6.89844 116.887L10.4283 113.839L14.5196 116.085L12.7148 111.793L16.1242 108.604L11.4713 109.005L6.91851 116.907L6.89844 116.887Z" fill="#FCD116"/>
<path d="M6.89844 16.4461L10.4283 19.4946L14.5196 17.2484L12.7148 21.5404L16.1242 24.7293L11.4713 24.3281L6.91851 16.426L6.89844 16.4461Z" fill="#FCD116"/>
<path d="M6.89884 16.4461L7.78119 21.0189L3.79004 23.4256L8.42312 24.0073L9.48616 28.54L11.4717 24.3281L6.91891 16.426L6.89884 16.4461Z" fill="#FCD116"/>
</svg>
